<!-- Generated by IcoMoon.io -->
<svg version="1.1" xmlns="http://www.w3.org/2000/svg" width="16" height="20" viewBox="0 0 20 20">
<title>link</title>
<path d="M7.761 9.552c0.718-0.718 1.969-0.718 2.687 0l0.448 0.448 0.896-0.896-0.448-0.448c-0.597-0.598-1.393-0.928-2.239-0.928s-1.642 0.33-2.239 0.928l-1.344 1.344c-1.234 1.235-1.234 3.245 0 4.479 0.618 0.618 1.428 0.926 2.239 0.926s1.623-0.308 2.24-0.926l0.448-0.448-0.896-0.896-0.448 0.448c-0.741 0.739-1.947 0.741-2.688 0s-0.74-1.947 0-2.688l1.344-1.344z"></path>
<path d="M10 5.521l-0.448 0.448 0.896 0.896 0.448-0.448c0.741-0.739 1.946-0.74 2.688 0 0.74 0.741 0.74 1.947 0 2.688l-1.344 1.344c-0.718 0.718-1.969 0.718-2.687 0l-0.448-0.448-0.896 0.896 0.448 0.448c0.597 0.598 1.393 0.928 2.239 0.928s1.642-0.33 2.239-0.928l1.344-1.344c1.234-1.235 1.234-3.245 0-4.479-1.235-1.235-3.245-1.235-4.479 0z"></path>
</svg>
