<!-- Generated by IcoMoon.io -->
<svg version="1.1" xmlns="http://www.w3.org/2000/svg" width="20" height="20" viewBox="0 0 20 20">
<title>linkedin</title>
<path d="M7.23 5.966c0 0.706-0.573 1.279-1.279 1.279s-1.279-0.572-1.279-1.279c0-0.706 0.573-1.279 1.279-1.279s1.279 0.573 1.279 1.279zM8.437 15.309v-7.095h2.115v0.97h0.030c0.294-0.557 1.013-1.146 2.085-1.146 2.234 0 2.645 1.469 2.645 3.38v3.891h-2.204v-3.451c0-0.822-0.014-1.881-1.146-1.881-1.148 0-1.322 0.897-1.322 1.822v3.509h-2.203zM7.054 8.214h-2.206v7.095h2.206v-7.095z"></path>
</svg>