<!-- Generated by IcoMoon.io -->
<svg version="1.1" xmlns="http://www.w3.org/2000/svg" width="20" height="20" viewBox="0 0 20 20">
<title>twitter</title>
<path d="M14.771 7.498c0.008 0.109 0.008 0.218 0.008 0.327 0 3.328-2.533 7.163-7.163 7.163-1.426 0-2.751-0.413-3.866-1.131 0.202 0.023 0.397 0.031 0.608 0.031 1.177 0 2.26-0.398 3.126-1.076-1.107-0.023-2.034-0.748-2.354-1.746 0.156 0.023 0.312 0.039 0.476 0.039 0.226 0 0.452-0.031 0.663-0.086-1.154-0.234-2.019-1.247-2.019-2.471v-0.031c0.336 0.187 0.725 0.304 1.138 0.319-0.678-0.451-1.123-1.223-1.123-2.096 0-0.468 0.124-0.896 0.343-1.27 1.239 1.527 3.103 2.525 5.191 2.634-0.039-0.188-0.062-0.382-0.062-0.577 0-1.387 1.123-2.517 2.518-2.517 0.725 0 1.379 0.304 1.839 0.795 0.569-0.109 1.114-0.32 1.598-0.608-0.187 0.584-0.585 1.076-1.107 1.387 0.507-0.055 0.998-0.195 1.449-0.39-0.342 0.499-0.771 0.943-1.262 1.302z"></path>
</svg>