<svg viewBox="0 0 330 25" fill="none" xmlns="http://www.w3.org/2000/svg"><path d="M18.828 24.791h-4.079a1.782 1.782 0 01-1.674-.837L7.95 16.109a1.777 1.777 0 00-.628-.628 2.626 2.626 0 00-1.046-.209H4.5v9.519H0V.523h7.322c1.412-.014 2.82.161 4.184.523 1.039.305 2.026.763 2.929 1.36a4.778 4.778 0 011.674 2.2c.384.927.563 1.926.523 2.929.005.778-.1 1.552-.314 2.3a7.232 7.232 0 01-1.046 1.988 5.988 5.988 0 01-1.672 1.566 7.733 7.733 0 01-2.3 1.046c.303.175.584.386.837.628.314.314.418.523.732.837l5.959 8.891zM7.322 12.029a6.95 6.95 0 002.2-.314 5.541 5.541 0 001.569-.837c.43-.34.727-.822.837-1.36a2.84 2.84 0 00.314-1.674 3.305 3.305 0 00-1.259-2.821c-.732-.734-1.983-.944-3.661-.944H4.5v8.054l2.824-.1-.002-.004zM278.242 24.79h-3.557a1.458 1.458 0 01-.941-.313 1.21 1.21 0 01-.523-.732l-1.883-4.916h-10.045l-1.883 4.916a1.873 1.873 0 01-.523.732 1.685 1.685 0 01-.941.314h-3.553L264.016.523h4.6l9.626 24.268zm-7.845-9.1l-3.033-8.158a4.19 4.19 0 01-.418-1.36c-.1-.523-.314-1.046-.418-1.569a11.81 11.81 0 00-.418 1.569 6.102 6.102 0 00-.418 1.36l-2.929 7.95 7.636.209h-.002zM293.724 4.916a2.86 2.86 0 01-.418.523c-.209.1-.314.209-.523.209-.306-.01-.6-.12-.837-.314a4.925 4.925 0 01-.941-.628 8.47 8.47 0 00-1.36-.628 5.066 5.066 0 00-1.883-.314 4.338 4.338 0 00-1.674.314 4.06 4.06 0 00-1.151.628 5.764 5.764 0 00-.732.941 2.48 2.48 0 00-.314 1.255c.011.483.156.954.418 1.36a3.95 3.95 0 001.255.941c.523.209 1.151.523 1.778.732.684.18 1.349.426 1.987.732.732.314 1.36.523 1.987.837a6.86 6.86 0 011.778 1.255 5.455 5.455 0 011.258 1.781c.308.8.45 1.654.418 2.51a9.7 9.7 0 01-.518 3.034 4.823 4.823 0 01-1.674 2.406 7.489 7.489 0 01-2.615 1.674 9.38 9.38 0 01-3.556.628 8.712 8.712 0 01-2.3-.314 13.467 13.467 0 01-2.2-.628 15.745 15.745 0 01-1.883-.941 4.928 4.928 0 01-1.569-1.36l1.36-2.2a.56.56 0 01.418-.314c.209-.1.314-.209.523-.209.309-.008.61.104.837.314.365.304.749.583 1.15.837.499.322 1.024.602 1.569.837.699.273 1.452.38 2.2.314a4.986 4.986 0 003.034-.837 3.18 3.18 0 001.046-2.615 3.46 3.46 0 00-.418-1.569 4.18 4.18 0 00-1.255-1.046 9.048 9.048 0 00-1.778-.732 44.356 44.356 0 01-1.987-.628c-.732-.314-1.36-.523-1.987-.837a5.471 5.471 0 01-1.778-1.255 5.945 5.945 0 01-1.255-1.883 7.658 7.658 0 01-.418-2.824c.012-.862.19-1.715.523-2.51a7.34 7.34 0 011.456-2.192 9.541 9.541 0 012.406-1.572A10.707 10.707 0 01287.552 0c1.356.03 2.698.278 3.975.732a7.47 7.47 0 013.034 1.883l-.837 2.301zM303.763 24.79h-4.6V.524h4.6V24.79zM329.916 24.79h-3.556a1.458 1.458 0 01-.941-.313 1.21 1.21 0 01-.523-.732l-1.883-4.916h-10.046l-1.883 4.916a1.872 1.872 0 01-.523.732 1.685 1.685 0 01-.941.314h-3.553L315.586.523h4.6l9.73 24.268zm-8.054-9.1l-2.929-8.158a4.19 4.19 0 01-.419-1.36c-.1-.523-.314-1.046-.418-1.569a11.81 11.81 0 00-.418 1.569 9.78 9.78 0 00-.418 1.36l-2.929 7.95 7.531.209zM26.048 21.234v-4.6l3.661-4.08-3.661-3.244V4.184h9.414L36.82.523H21.548V24.79H36.82l-1.36-3.556-9.412-.001z" fill="#6ABEB0"/><path d="M56.8 19.35a.9.9 0 00-.628-.313c-.209 0-.314 0-.314.1s-.314.209-.314.314a4.643 4.643 0 01-1.151.837c-.367.279-.799.46-1.255.523a5.189 5.189 0 01-1.36.314 8.458 8.458 0 01-1.674.1 7.018 7.018 0 01-2.929-.628 7.167 7.167 0 01-2.406-1.674 6.907 6.907 0 01-1.568-2.714 12.643 12.643 0 01-.628-3.556c.005-1.204.18-2.402.523-3.556a8.542 8.542 0 011.464-2.72 5.26 5.26 0 012.3-1.674 8.664 8.664 0 013.033-.628 7.278 7.278 0 011.674.209c.523.1.837.209 1.36.314.302.164.617.303.941.418.209.209.418.418.628.418a.9.9 0 00.628.314c.209.1.314.209.523.209.226-.005.445-.078.628-.21.209 0 .209-.1.314-.313l1.466-2.087a10.998 10.998 0 00-3.556-2.3 12.055 12.055 0 00-4.603-.838c-1.641-.013-3.27.27-4.811.837a11.873 11.873 0 00-3.766 2.51 10.145 10.145 0 00-2.406 3.975 14.545 14.545 0 00-.628 1.988l3.243 2.929-3.143 3.556c.1.523.314 1.046.418 1.569.533 1.47 1.35 2.82 2.406 3.975a12.67 12.67 0 003.661 2.51c1.528.617 3.169.902 4.815.837 1.789.04 3.567-.28 5.23-.941a9.285 9.285 0 003.557-2.824L56.8 19.35zM83.786 9.204a15.126 15.126 0 00-1.149-3.033 11.844 11.844 0 00-1.778-2.406 10.647 10.647 0 00-2.406-1.883A16.57 16.57 0 0075.418.627a17.632 17.632 0 00-3.452-.314 12.642 12.642 0 00-5.021.94 12.363 12.363 0 00-3.87 2.51 12.867 12.867 0 00-2.51 3.976 19.81 19.81 0 00-.628 1.884l3.243 2.929-3.143 3.45c.209.524.314 1.047.523 1.57a12.202 12.202 0 002.51 3.975 10.769 10.769 0 003.87 2.51 13.86 13.86 0 0010.042 0 12.363 12.363 0 003.87-2.51 10.959 10.959 0 002.406-3.975c.607-1.566.892-3.238.837-4.916a7.785 7.785 0 00-.309-3.452zm-4.707 7.109a6.638 6.638 0 01-1.464 2.51 6.271 6.271 0 01-2.406 1.674 9.844 9.844 0 01-3.138.628 7.301 7.301 0 01-3.138-.628 5.577 5.577 0 01-2.406-1.674 6.244 6.244 0 01-1.464-2.72 12.353 12.353 0 010-7.113 8.54 8.54 0 011.464-2.72 6.27 6.27 0 012.41-1.668 9.845 9.845 0 013.138-.628 7.3 7.3 0 013.138.628 5.576 5.576 0 012.406 1.674 6.244 6.244 0 011.464 2.72c.1.209.1.418.209.628l3.243 3.033-3.456 3.656zM120.188.523v8.89l3.556 3.139-3.556 3.87c0 .315.1.733.1 1.047l-12.65-16.214a.78.78 0 00-.314-.314c-.1-.1-.209-.21-.314-.21a.517.517 0 00-.314-.1h-3.14v9.202l3.033 2.72-3.033 3.452v.314c0 .314.1.837.1 1.15L91.108 1.256a.78.78 0 00-.314-.314s-.209-.21-.314-.21a.516.516 0 00-.314-.1h-2.928v9l3.347 3.034-3.347 3.653v8.473h3.975V9.937a12.654 12.654 0 00-.1-1.987l12.761 16.109c.217.239.463.45.732.628.265.118.548.19.837.209h2.406V9.936a12.69 12.69 0 00-.1-1.986l12.552 16c.217.239.463.45.732.628.265.118.548.19.837.209h2.3V.523h-3.982zM132.429 21.234v-4.711l3.661-3.975-3.661-3.238V4.184h9.414l1.358-3.661h-15.272V24.79h15.272l-1.36-3.556-9.412-.001zM164.017 19.35a.9.9 0 00-.628-.313c-.209 0-.314 0-.314.1s-.314.209-.314.314a4.643 4.643 0 01-1.151.837c-.367.279-.799.46-1.255.523a2.9 2.9 0 01-1.36.314 8.457 8.457 0 01-1.674.1 7.02 7.02 0 01-2.929-.628 7.162 7.162 0 01-2.406-1.674 6.905 6.905 0 01-1.567-2.714 12.653 12.653 0 01-.628-3.556c.005-1.204.181-2.402.523-3.556a8.553 8.553 0 011.464-2.72 5.257 5.257 0 012.3-1.674 8.663 8.663 0 013.033-.628 7.28 7.28 0 011.674.209c.523.1.837.209 1.36.314.302.164.617.303.941.418.209.1.523.314.732.418a.9.9 0 00.628.314c.209.1.314.209.523.209.226-.005.444-.078.628-.21.209-.104.314-.208.314-.313l1.464-2.092a11 11 0 00-3.556-2.3 11.13 11.13 0 00-4.706-.833 13.622 13.622 0 00-4.812.837 11.87 11.87 0 00-3.766 2.51 10.145 10.145 0 00-2.406 3.975 6.33 6.33 0 00-.523 1.883l3.452 3.033-3.351 3.662c.1.418.314.94.418 1.36a11.91 11.91 0 002.406 3.975 12.661 12.661 0 003.661 2.51 11.63 11.63 0 004.812.837c1.789.04 3.567-.28 5.23-.941a8.57 8.57 0 003.556-2.824l-1.773-1.675zM166.632.523v3.766h7.322v5.125l3.556 3.138-3.556 3.97v8.265h4.5V4.289h7.322V.523h-19.144zM188.912.523V9.31l3.556 3.243-3.556 3.97v8.264h4.6V.523h-4.6zM215.377.523V9.31l3.557 3.243-3.557 3.97a2.9 2.9 0 00.1.94L202.72 1.256a.78.78 0 00-.314-.314c-.1-.1-.209-.21-.314-.21a.517.517 0 00-.314-.1h-3.033v8.892l3.556 3.138-3.556 3.862v8.368h3.975V9.937a12.69 12.69 0 00-.1-1.987l12.761 16.109c.217.239.463.45.732.628.265.118.548.19.837.209h2.3V.523h-3.873zM236.611 12.656v2.51a.744.744 0 00.314.628c.173.225.45.344.732.314h3.033v4.393c-.732.314-1.36.628-1.987.837a7.901 7.901 0 01-2.406.314 9.212 9.212 0 01-3.457-.628 6.476 6.476 0 01-2.615-1.778 7.38 7.38 0 01-1.674-2.72 9.963 9.963 0 01-.628-3.661c.005-1.204.181-2.402.523-3.556a7.119 7.119 0 011.569-2.72 6.558 6.558 0 012.412-1.776 7.802 7.802 0 013.243-.628 9.384 9.384 0 011.883.209 9.28 9.28 0 001.464.314c.418.209.837.314 1.255.523.371.231.756.44 1.151.628.29.245.669.358 1.046.314.341-.111.635-.332.837-.628l1.36-1.987c-.523-.418-1.046-.837-1.674-1.36a11.579 11.579 0 00-1.987-.941 8.097 8.097 0 00-2.406-.628 11.41 11.41 0 00-2.721-.316 16.612 16.612 0 00-5.23.837 11.737 11.737 0 00-3.975 2.51 11.741 11.741 0 00-2.51 3.975 6.36 6.36 0 00-.523 1.883l3.452 3.033-3.243 3.556c.1.523.314.941.418 1.464a12.5 12.5 0 002.615 3.975 13.387 13.387 0 004.08 2.51c1.711.607 3.52.891 5.335.837a16.111 16.111 0 004.5-.628c1.43-.427 2.775-1.1 3.975-1.987v-9.622H236.611z" fill="#fff" fill-opacity=".65"/></svg>